<svg width="101" height="98" viewBox="0 0 101 98" fill="none" xmlns="http://www.w3.org/2000/svg">
<path d="M4.82335 4.30762H96.4902V93.4746H4.82335V4.30762Z" fill="url(#paint0_radial_25_459)"/>
<path d="M4.82335 4.30761H96.4903V93.4745H4.82335V4.30761ZM0.656731 97.6413H100.657V0.140991H0.656731V97.6413ZM59.1985 41.1827C59.1985 40.6826 59.1985 39.4745 58.9902 37.1409C58.9902 36.8076 59.0736 36.7243 59.3235 36.5993C61.8652 35.5576 67.9069 33.7244 74.6568 33.7244C74.9901 33.7244 75.1569 33.8077 75.1569 34.141V40.141C75.1569 40.4743 75.032 40.5576 74.6568 40.5576C72.0319 40.4327 68.1569 40.7659 66.6986 41.3909V67.6827C66.6986 68.016 66.5736 68.1827 66.1985 68.1827H59.6568C59.3235 68.1827 59.1567 68.0577 59.1567 67.6827V41.1826H59.1985V41.1827ZM28.3653 68.1827C27.8652 68.1827 27.7402 67.9745 27.7402 67.5577V22.766C27.7402 22.4327 27.8652 22.2242 28.2403 22.2242H34.8234C35.1567 22.2242 35.24 22.3492 35.24 22.7243V61.3077H52.4066C52.7399 61.3077 52.865 61.4327 52.7815 61.8078L51.74 67.7245C51.6567 68.0577 51.4484 68.2245 51.1149 68.2245H28.3653V68.1827Z" fill="#AAD1EB"/>
<defs>
<radialGradient id="paint0_radial_25_459" cx="0" cy="0" r="1" gradientUnits="userSpaceOnUse" gradientTransform="translate(35.0139 24.29) scale(69.6668 67.4502)">
<stop stop-color="#39464D" stop-opacity="0.98"/>
<stop offset="1" stop-color="#05151F"/>
</radialGradient>
</defs>
</svg>
