<svg width="964" height="332" viewBox="0 0 964 332" fill="none" xmlns="http://www.w3.org/2000/svg">
<g clip-path="url(#clip0_2602_24)">
<g opacity="0.2">
<path d="M-94.684 -142.258C153.169 -131.379 -64.174 87.0525 125.22 213.75C298.789 329.86 599.025 70.6943 639.338 436.44C666.938 686.846 747.761 779.862 953.086 833.572" stroke="#F2F2F2" stroke-width="1.75246"/>
<path d="M-83.4604 -155.717C164.393 -144.838 -52.9504 73.5935 136.443 200.291C310.012 316.401 610.248 57.2353 650.562 422.981C678.162 673.387 758.985 766.403 964.309 820.113" stroke="#F2F2F2" stroke-width="1.75246"/>
<path d="M-72.237 -169.176C175.616 -158.297 -41.727 60.1345 147.667 186.832C321.236 302.942 621.472 43.7764 661.785 409.522C689.385 659.928 770.208 752.944 975.533 806.654" stroke="#F2F2F2" stroke-width="1.75246"/>
<path d="M-61.0134 -182.635C186.84 -171.756 -30.5034 46.6755 158.89 173.373C332.459 289.483 632.695 30.3174 673.009 396.063C700.609 646.469 781.432 739.485 986.756 793.195" stroke="#F2F2F2" stroke-width="1.75246"/>
<path d="M-49.7899 -196.094C198.063 -185.215 -19.2798 33.2165 170.114 159.914C343.683 276.024 643.919 16.8584 684.232 382.604C711.833 633.01 792.656 726.026 997.98 779.736" stroke="#F2F2F2" stroke-width="1.75246"/>
<path d="M-38.5664 -209.553C209.287 -198.674 -8.05633 19.7575 181.338 146.455C354.906 262.565 655.142 3.39941 695.456 369.145C723.056 619.551 803.879 712.567 1009.2 766.277" stroke="#F2F2F2" stroke-width="1.75246"/>
<path d="M-27.3428 -223.012C220.51 -212.133 3.16724 6.29831 192.561 132.995C366.13 249.106 666.366 -10.0598 706.679 355.685C734.28 606.091 815.103 699.108 1020.43 752.818" stroke="#F2F2F2" stroke-width="1.75246"/>
<path d="M-16.1192 -236.471C231.734 -225.592 14.3909 -7.16067 203.785 119.536C377.353 235.647 677.589 -23.5188 717.903 342.226C745.503 592.632 826.326 685.649 1031.65 739.359" stroke="#F2F2F2" stroke-width="1.75246"/>
<path d="M-4.89571 -249.93C242.957 -239.051 25.6143 -20.6197 215.008 106.077C388.577 222.188 688.813 -36.9778 729.126 328.767C756.727 579.174 837.55 672.19 1042.87 725.9" stroke="#F2F2F2" stroke-width="1.75246"/>
<path d="M6.32795 -263.389C254.181 -252.51 36.838 -34.0789 226.232 92.6182C399.801 208.729 700.037 -50.437 740.35 315.308C767.95 565.714 848.773 658.731 1054.1 712.441" stroke="#F2F2F2" stroke-width="1.75246"/>
<path d="M17.5513 -276.848C265.404 -265.969 48.0614 -47.5376 237.455 79.1595C411.024 195.27 711.26 -63.8958 751.573 301.85C779.174 552.256 859.997 645.272 1065.32 698.982" stroke="#F2F2F2" stroke-width="1.75246"/>
<path d="M28.775 -290.307C276.628 -279.428 59.285 -60.9969 248.679 65.7003C422.248 181.811 722.484 -77.355 762.797 288.39C790.398 538.796 871.22 631.813 1076.54 685.523" stroke="#F2F2F2" stroke-width="1.75246"/>
<path d="M39.9986 -303.766C287.852 -292.887 70.5086 -74.4558 259.902 52.2413C433.471 168.352 733.707 -90.814 774.021 274.931C801.621 525.337 882.444 618.354 1087.77 672.064" stroke="#F2F2F2" stroke-width="1.75246"/>
<path d="M51.2219 -317.225C299.075 -306.346 81.732 -87.9148 271.126 38.7823C444.695 154.893 744.931 -104.273 785.244 261.472C812.844 511.878 893.667 604.895 1098.99 658.605" stroke="#F2F2F2" stroke-width="1.75246"/>
<path d="M62.4455 -330.684C310.299 -319.805 92.9556 -101.374 282.349 25.3233C455.918 141.434 756.154 -117.732 796.468 248.013C824.068 498.419 904.891 591.436 1110.22 645.146" stroke="#F2F2F2" stroke-width="1.75246"/>
<path d="M73.6691 -344.143C321.522 -333.264 104.179 -114.833 293.573 11.8643C467.142 127.975 767.378 -131.191 807.691 234.554C835.292 484.96 916.115 577.977 1121.44 631.687" stroke="#F2F2F2" stroke-width="1.75246"/>
<path d="M84.8926 -357.602C332.746 -346.723 115.403 -128.292 304.796 -1.59465C478.365 114.516 778.601 -144.65 818.915 221.095C846.515 471.501 927.338 564.518 1132.66 618.228" stroke="#F2F2F2" stroke-width="1.75246"/>
<path d="M96.1161 -371.061C343.969 -360.182 126.626 -141.751 316.02 -15.0536C489.589 101.057 789.825 -158.109 830.138 207.636C857.739 458.042 938.562 551.059 1143.89 604.769" stroke="#F2F2F2" stroke-width="1.75246"/>
<path d="M107.34 -384.521C355.193 -373.641 137.85 -155.21 327.244 -28.5129C500.813 87.5979 801.049 -171.568 841.362 194.177C868.962 444.583 949.785 537.6 1155.11 591.31" stroke="#F2F2F2" stroke-width="1.75246"/>
<path d="M118.563 -397.979C366.416 -387.1 149.073 -168.669 338.467 -41.9718C512.036 74.1389 812.272 -185.027 852.585 180.718C880.186 431.124 961.009 524.141 1166.33 577.851" stroke="#F2F2F2" stroke-width="1.75246"/>
</g>
</g>
<defs>
<clipPath id="clip0_2602_24">
<rect width="964" height="332" fill="white"/>
</clipPath>
</defs>
</svg>
