<svg width="260" height="261" viewBox="0 0 260 261" fill="none" xmlns="http://www.w3.org/2000/svg">
<g filter="url(#filter0_d_22_670)">
<rect x="40.0001" y="36.5939" width="180" height="180" rx="32" fill="white"/>
<rect x="40.5001" y="37.0939" width="179" height="179" rx="31.5" stroke="#D9D9D9"/>
</g>
<path d="M82.7874 92.7627L129.306 76.1881L177.078 92.468L169.343 154.015L129.306 176.188L89.8961 154.31L82.7874 92.7627Z" fill="#E23237"/>
<path d="M177.078 92.468L129.306 76.1881V176.188L169.343 154.052L177.078 92.468Z" fill="#B52E31"/>
<path d="M129.38 87.8641L100.393 152.358L111.222 152.173L117.041 137.624H143.045L149.417 152.358L159.767 152.542L129.38 87.8641ZM129.454 108.527L139.251 129.006H120.835L129.454 108.527Z" fill="white"/>
<defs>
<filter id="filter0_d_22_670" x="0.00012207" y="0.593872" width="260" height="260" filterUnits="userSpaceOnUse" color-interpolation-filters="sRGB">
<feFlood flood-opacity="0" result="BackgroundImageFix"/>
<feColorMatrix in="SourceAlpha" type="matrix" values="0 0 0 0 0 0 0 0 0 0 0 0 0 0 0 0 0 0 127 0" result="hardAlpha"/>
<feOffset dy="4"/>
<feGaussianBlur stdDeviation="20"/>
<feComposite in2="hardAlpha" operator="out"/>
<feColorMatrix type="matrix" values="0 0 0 0 0.0367917 0 0 0 0 0.0348958 0 0 0 0 0.0484375 0 0 0 0.1 0"/>
<feBlend mode="normal" in2="BackgroundImageFix" result="effect1_dropShadow_22_670"/>
<feBlend mode="normal" in="SourceGraphic" in2="effect1_dropShadow_22_670" result="shape"/>
</filter>
</defs>
</svg>
