<svg width="261" height="261" viewBox="0 0 261 261" fill="none" xmlns="http://www.w3.org/2000/svg">
<g filter="url(#filter0_d_22_674)">
<rect x="40.724" y="36.5939" width="180" height="180" rx="32" fill="white"/>
<rect x="41.224" y="37.0939" width="179" height="179" rx="31.5" stroke="#D9D9D9"/>
</g>
<path d="M108.562 118.006C108.562 119.237 108.695 120.235 108.927 120.966C109.194 121.698 109.526 122.496 109.992 123.361C110.158 123.627 110.225 123.893 110.225 124.126C110.225 124.459 110.025 124.791 109.593 125.124L107.497 126.521C107.198 126.72 106.899 126.82 106.633 126.82C106.3 126.82 105.967 126.654 105.635 126.354C105.169 125.856 104.77 125.323 104.438 124.791C104.105 124.226 103.772 123.594 103.406 122.829C100.812 125.889 97.5529 127.419 93.6283 127.419C90.8346 127.419 88.6062 126.621 86.9765 125.024C85.3469 123.428 84.5154 121.299 84.5154 118.638C84.5154 115.811 85.5132 113.516 87.5419 111.787C89.5707 110.058 92.2647 109.193 95.6904 109.193C96.8212 109.193 97.9853 109.293 99.2158 109.459C100.446 109.625 101.71 109.891 103.041 110.191V107.763C103.041 105.235 102.508 103.472 101.477 102.441C100.413 101.41 98.6172 100.911 96.0562 100.911C94.8922 100.911 93.6949 101.044 92.4643 101.344C91.2337 101.643 90.0364 102.009 88.8723 102.475C88.3402 102.707 87.9411 102.84 87.7082 102.907C87.4754 102.973 87.3091 103.007 87.1761 103.007C86.7105 103.007 86.4777 102.674 86.4777 101.976V100.346C86.4777 99.8138 86.5442 99.4147 86.7105 99.1819C86.8768 98.949 87.1761 98.7162 87.6417 98.4834C88.8058 97.8848 90.2027 97.3859 91.8324 96.9868C93.462 96.5544 95.1915 96.3548 97.0208 96.3548C100.979 96.3548 103.872 97.2528 105.735 99.0488C107.564 100.845 108.495 103.572 108.495 107.231V118.006H108.562ZM95.0585 123.062C96.156 123.062 97.2868 122.862 98.4841 122.463C99.6815 122.064 100.746 121.332 101.644 120.335C102.176 119.703 102.575 119.004 102.775 118.206C102.974 117.408 103.107 116.443 103.107 115.312V113.916C102.143 113.683 101.112 113.483 100.047 113.35C98.983 113.217 97.952 113.151 96.921 113.151C94.6926 113.151 93.0629 113.583 91.9654 114.481C90.8678 115.379 90.3357 116.643 90.3357 118.306C90.3357 119.869 90.7348 121.033 91.5663 121.831C92.3645 122.663 93.5286 123.062 95.0585 123.062ZM121.765 126.654C121.167 126.654 120.768 126.554 120.502 126.321C120.236 126.122 120.003 125.656 119.803 125.024L111.987 99.3149C111.788 98.6497 111.688 98.2174 111.688 97.9845C111.688 97.4524 111.954 97.1531 112.486 97.1531H115.746C116.377 97.1531 116.81 97.2528 117.043 97.4857C117.309 97.6852 117.508 98.1508 117.708 98.7828L123.295 120.8L128.484 98.7828C128.65 98.1176 128.85 97.6852 129.116 97.4857C129.382 97.2861 129.847 97.1531 130.446 97.1531H133.107C133.739 97.1531 134.171 97.2528 134.437 97.4857C134.703 97.6852 134.936 98.1508 135.069 98.7828L140.324 121.066L146.078 98.7828C146.277 98.1176 146.51 97.6852 146.743 97.4857C147.009 97.2861 147.441 97.1531 148.04 97.1531H151.133C151.665 97.1531 151.965 97.4191 151.965 97.9845C151.965 98.1508 151.931 98.3171 151.898 98.5167C151.865 98.7162 151.798 98.9823 151.665 99.3482L143.65 125.057C143.45 125.723 143.217 126.155 142.951 126.354C142.685 126.554 142.253 126.687 141.688 126.687H138.827C138.195 126.687 137.763 126.587 137.497 126.354C137.231 126.122 136.998 125.689 136.865 125.024L131.71 103.572L126.588 124.991C126.422 125.656 126.222 126.088 125.956 126.321C125.69 126.554 125.224 126.654 124.626 126.654H121.765ZM164.503 127.552C162.774 127.552 161.044 127.352 159.381 126.953C157.718 126.554 156.421 126.122 155.557 125.623C155.024 125.323 154.659 124.991 154.526 124.692C154.392 124.392 154.326 124.06 154.326 123.76V122.064C154.326 121.366 154.592 121.033 155.091 121.033C155.29 121.033 155.49 121.066 155.69 121.133C155.889 121.199 156.188 121.332 156.521 121.465C157.652 121.964 158.882 122.363 160.18 122.629C161.51 122.896 162.807 123.029 164.137 123.029C166.233 123.029 167.862 122.663 168.993 121.931C170.124 121.199 170.723 120.135 170.723 118.771C170.723 117.84 170.423 117.075 169.825 116.443C169.226 115.811 168.095 115.246 166.465 114.714L161.643 113.217C159.215 112.452 157.419 111.321 156.322 109.825C155.224 108.361 154.659 106.732 154.659 105.002C154.659 103.605 154.958 102.375 155.557 101.31C156.155 100.246 156.953 99.3149 157.951 98.5832C158.949 97.8182 160.08 97.2528 161.41 96.8537C162.74 96.4546 164.137 96.2883 165.601 96.2883C166.332 96.2883 167.097 96.3216 167.829 96.4214C168.594 96.5211 169.293 96.6542 169.991 96.7872C170.656 96.9535 171.288 97.1198 171.887 97.3194C172.485 97.5189 172.951 97.7185 173.284 97.918C173.749 98.1841 174.082 98.4502 174.281 98.7495C174.481 99.0156 174.581 99.3814 174.581 99.847V101.41C174.581 102.109 174.315 102.475 173.816 102.475C173.55 102.475 173.117 102.341 172.552 102.075C170.656 101.211 168.528 100.778 166.166 100.778C164.27 100.778 162.774 101.078 161.743 101.71C160.712 102.341 160.18 103.306 160.18 104.67C160.18 105.601 160.512 106.399 161.177 107.031C161.842 107.663 163.073 108.295 164.836 108.86L169.559 110.357C171.953 111.122 173.683 112.186 174.714 113.55C175.745 114.913 176.244 116.477 176.244 118.206C176.244 119.636 175.944 120.933 175.379 122.064C174.78 123.195 173.982 124.193 172.951 124.991C171.92 125.822 170.689 126.421 169.259 126.853C167.763 127.319 166.199 127.552 164.503 127.552Z" fill="#252F3E"/>
<path fill-rule="evenodd" clip-rule="evenodd" d="M170.789 143.716C159.847 151.798 143.949 156.088 130.28 156.088C111.123 156.088 93.8611 149.004 80.8236 137.23C79.7926 136.299 80.7239 135.035 81.9544 135.767C96.0562 143.948 113.451 148.904 131.444 148.904C143.583 148.904 156.92 146.376 169.193 141.188C171.022 140.356 172.585 142.385 170.789 143.716Z" fill="#FF9900"/>
<path fill-rule="evenodd" clip-rule="evenodd" d="M175.346 138.527C173.949 136.731 166.1 137.663 162.541 138.095C161.477 138.228 161.31 137.297 162.275 136.598C168.528 132.208 178.805 133.472 180.002 134.935C181.199 136.432 179.669 146.709 173.816 151.631C172.918 152.396 172.053 151.997 172.452 150.999C173.782 147.707 176.742 140.29 175.346 138.527Z" fill="#FF9900"/>
<defs>
<filter id="filter0_d_22_674" x="0.723999" y="0.593872" width="260" height="260" filterUnits="userSpaceOnUse" color-interpolation-filters="sRGB">
<feFlood flood-opacity="0" result="BackgroundImageFix"/>
<feColorMatrix in="SourceAlpha" type="matrix" values="0 0 0 0 0 0 0 0 0 0 0 0 0 0 0 0 0 0 127 0" result="hardAlpha"/>
<feOffset dy="4"/>
<feGaussianBlur stdDeviation="20"/>
<feComposite in2="hardAlpha" operator="out"/>
<feColorMatrix type="matrix" values="0 0 0 0 0.0367917 0 0 0 0 0.0348958 0 0 0 0 0.0484375 0 0 0 0.1 0"/>
<feBlend mode="normal" in2="BackgroundImageFix" result="effect1_dropShadow_22_674"/>
<feBlend mode="normal" in="SourceGraphic" in2="effect1_dropShadow_22_674" result="shape"/>
</filter>
</defs>
</svg>
