<svg width="70" height="70" viewBox="0 0 261 261" fill="none" xmlns="http://www.w3.org/2000/svg">
<g filter="url(#filter0_d_33_2245)">
<rect x="40.3135" y="36.8909" width="180" height="180" rx="32" fill="white"/>
<rect x="40.8135" y="37.3909" width="179" height="179" rx="31.5" stroke="#D9D9D9"/>
</g>
<path d="M117.466 153.821C117.466 153.821 113.645 156.043 120.186 156.795C128.11 157.699 132.16 157.569 140.892 155.917C140.892 155.917 143.188 157.356 146.395 158.603C126.819 166.993 102.09 158.117 117.466 153.821ZM115.074 142.872C115.074 142.872 110.788 146.045 117.334 146.722C125.799 147.595 132.483 147.667 144.051 145.439C144.051 145.439 145.651 147.061 148.167 147.949C124.498 154.87 98.1356 148.494 115.074 142.872Z" fill="#5382A1"/>
<path d="M135.24 124.301C140.064 129.854 133.973 134.851 133.973 134.851C133.973 134.851 146.221 128.529 140.596 120.611C135.342 113.228 131.314 109.559 153.123 96.9102C153.123 96.9102 118.889 105.46 135.24 124.3" fill="#E76F00"/>
<path d="M161.131 161.919C161.131 161.919 163.959 164.249 158.016 166.052C146.717 169.475 110.987 170.508 101.061 166.188C97.4929 164.636 104.184 162.482 106.289 162.03C108.484 161.554 109.738 161.643 109.738 161.643C105.77 158.847 84.0903 167.131 98.726 169.503C138.639 175.976 171.484 166.589 161.131 161.919ZM119.304 131.529C119.304 131.529 101.129 135.846 112.868 137.413C117.824 138.077 127.704 137.927 136.908 137.155C144.429 136.521 151.982 135.172 151.982 135.172C151.982 135.172 149.33 136.308 147.411 137.618C128.955 142.472 93.301 140.214 103.565 135.249C112.246 131.053 119.304 131.529 119.304 131.529H119.304ZM151.907 149.753C170.669 140.003 161.994 130.635 155.939 131.897C154.455 132.206 153.794 132.473 153.794 132.473C153.794 132.473 154.345 131.61 155.397 131.237C167.375 127.026 176.587 143.657 151.53 150.244C151.53 150.244 151.82 149.985 151.907 149.753Z" fill="#5382A1"/>
<path d="M140.596 76.4854C140.596 76.4854 150.986 86.8797 130.741 102.862C114.506 115.684 127.039 122.994 130.734 131.346C121.258 122.796 114.303 115.269 118.969 108.264C125.817 97.9808 144.788 92.9953 140.596 76.4851" fill="#E76F00"/>
<path d="M121.147 176.171C139.156 177.324 166.811 175.531 167.466 167.01C167.466 167.01 166.207 170.241 152.582 172.806C137.211 175.698 118.254 175.361 107.01 173.507C107.01 173.507 109.311 175.412 121.148 176.171" fill="#5382A1"/>
<rect x="41.0895" y="36.9851" width="179" height="179" rx="31.5" stroke="black"/>
<defs>
<filter id="filter0_d_33_2245" x="0.313477" y="0.890869" width="260" height="260" filterUnits="userSpaceOnUse" color-interpolation-filters="sRGB">
<feFlood flood-opacity="0" result="BackgroundImageFix"/>
<feColorMatrix in="SourceAlpha" type="matrix" values="0 0 0 0 0 0 0 0 0 0 0 0 0 0 0 0 0 0 127 0" result="hardAlpha"/>
<feOffset dy="4"/>
<feGaussianBlur stdDeviation="20"/>
<feComposite in2="hardAlpha" operator="out"/>
<feColorMatrix type="matrix" values="0 0 0 0 0.0367917 0 0 0 0 0.0348958 0 0 0 0 0.0484375 0 0 0 0.1 0"/>
<feBlend mode="normal" in2="BackgroundImageFix" result="effect1_dropShadow_33_2245"/>
<feBlend mode="normal" in="SourceGraphic" in2="effect1_dropShadow_33_2245" result="shape"/>
</filter>
</defs>
</svg>
