<svg width="226" height="50" viewBox="0 0 506 107" fill="none" xmlns="http://www.w3.org/2000/svg">
<g clip-path="url(#clip0_108_9179)">
<path d="M32.6354 66.5885L33.4635 66.526L33.9792 65.8229L33.849 64.9896V60.9583L33.9792 60V58.8437L33.4635 57.7604L32.5677 56.6719L31.6719 56.2864L29.9479 55.0729L29.1146 54.8125L27.3854 53.7292L24.7656 52.5104L23.9948 51.8698L22.974 51.4896L22.4583 50.8489L23.0365 49.8854L23.8021 49.4375L24.7656 49.1198L25.6615 48.4167L27.3229 47.5833L28.2813 47.1979L31.6719 45.151L32.6354 44.8333L33.4635 43.875L33.849 42.5937L33.9792 39.8437L33.849 36.3229L33.9115 35.5521L33.3385 34.5937L32.6354 34.6562L31.6719 35.2344L29.8177 36L21.6927 40.3542L20.7344 40.7396L18.9427 42.0156L18.1719 42.2083L17.3385 42.7864L16.3802 43.2969L15.2917 43.6823L13.5625 44.7031L12.7344 45.026L11.8385 45.5989L10.8125 45.9844L9.97917 46.5625L9.08334 47.5208L8.63542 49.25L8.70313 50.0781L8.57292 52.6406L9.02084 53.9844L10.0469 54.8125L10.9427 55.3281L11.7708 55.776L12.7344 56.0937L13.6302 56.6719L14.5885 57.0521L20.349 60.2552L21.6927 60.8281L22.7135 61.4062L23.5469 61.9844L24.5052 62.4323L25.276 63.0052L29.0521 64.6719L31.6719 66.3333L32.6354 66.5885Z" fill="#34303E"/>
<path d="M60.0212 73.6927L69.1671 73.5625L70.5108 72.9896L71.2191 71.6458V65.1823L70.5108 63.901L69.1671 63.3281L67.6983 63.4531L66.4796 63.2604L63.2191 63.1979L61.1046 63.4531L59.8285 63.3281L58.4171 63.3906L57.2035 63.1979L55.7973 63.3281L54.4535 62.6875L53.9379 61.5364V57.5L54.516 56.1562L55.6671 55.4531L57.5889 55.3906L59.6358 55.5833L62.0681 55.4531L64.6879 55.5208L65.9691 55.3906L67.4431 55.4531L68.7191 54.9427L69.1671 53.6614L69.3598 47.9062L68.7191 46.1146L67.2504 45.2812H63.4744L62.1306 45.4062L59.4431 45.2187L55.7296 45.3437L54.3858 44.7708L53.8754 42.7864V40.8021L54.4535 39.5833L55.8598 39.0729L57.0733 39.1354L58.2921 38.8802L67.4431 39.0104L68.6566 38.9479L70.0004 38.1771L70.641 37.026L70.5785 35.7448L70.641 34.4635L70.5108 30.625L69.9379 29.4114L68.6566 28.901H67.3129L66.1619 28.6406L60.9796 28.7083L59.5733 28.8333L58.2921 28.7083L57.2035 28.7708L55.9223 28.6406L50.6775 28.7708L49.3962 28.5781L48.1827 28.8333L47.0264 28.7083L45.7504 28.8333L44.4691 28.7708L43.1254 29.2812L42.4223 30.625L42.5473 33.0573L42.3598 35.6823L42.5473 37.0885L42.4223 43.3594L42.615 44.7031L42.4848 45.9219L42.4223 51.1667L42.615 52.3177L42.5473 62.6875L42.4223 63.901L42.615 65.1823L42.4223 69.5989L42.5473 71.0052L43.0629 72.7344L44.9796 73.5625L49.5889 73.6302L50.9952 73.5L52.1462 73.5625L54.7712 73.3698L55.99 73.6302L57.4587 73.6927L58.74 73.5625L60.0212 73.6927Z" fill="#34303E"/>
<path d="M92.9707 74.0104L94.8249 74.2031L96.8718 74.1406L103.143 72.9219L106.471 71.1302L108.518 69.7239L110.309 67.6771L111.591 65.6302L112.106 64.4791L112.486 63.1979L112.679 62.0469L112.742 58.0781L112.554 56.7969L112.231 55.5833L110.95 53.2135L109.413 51.2291L108.33 50.3333L104.934 48.8021L99.6895 47.5208L93.2259 46.6875L90.5384 45.7291L89.5801 45.2187L88.5541 44.1927L88.4916 42.4635L88.6843 40.8021L89.3874 39.9062L90.4759 39.0729L91.3718 38.6875L92.5228 38.4323L96.6166 38.3073L98.028 38.8177L98.9864 39.5833L101.096 41.8229L103.08 42.4635L107.304 42.5937L108.455 42.4635L109.674 42.5937L110.887 41.8229L111.466 40.6094L110.95 38.1146L109.929 35.8073L109.096 34.7864L108.455 33.7604L107.622 32.8021L103.528 29.9844L100.007 28.7708L98.6634 28.5156L97.5124 28.3854L96.1062 28.0677L92.5228 28.1302L87.4655 29.1562L86.3145 29.6041L85.2937 30.2448L84.2676 30.625L82.9864 31.3958L82.0905 32.2239L80.9395 32.9948L80.2364 34.0833L79.403 34.9114L78.9551 36.0677L78.3145 37.0885L77.4187 40.8021L77.4864 45.0885L77.9343 46.8802L78.7624 49.1198L80.3666 51.2291L82.1582 52.8958L84.3978 54.2396L88.0437 55.4531L90.3457 55.9687L95.5957 56.3489L96.7468 56.5416L98.028 56.6041L100.33 57.5677L101.226 58.3333L101.544 60L101.163 61.6614L100.137 62.5573L99.1114 63.1354L96.7468 63.8385L94.9551 63.901L93.0332 63.776L91.5645 63.3906L90.6009 62.9427L89.4499 62.2396L88.4916 61.3437L87.5332 60.0625L86.252 59.5521L81.3874 59.4219L80.1062 59.5521L78.8301 59.4844L77.5489 60.0625L77.1009 61.4062L77.2312 62.8125L77.4864 63.9635L78.5072 66.526L80.1062 68.5104L81.9655 70.3646L83.0541 71.0677L87.6582 73.1823L89.0697 73.3698L90.2832 73.8177L92.9707 74.0104Z" fill="#34303E"/>
<path d="M127.522 71.5156L128.032 72.8594L129.376 73.5L130.595 73.3698L131.871 73.5L133.09 73.3698H137.058L138.334 72.8594L138.85 71.5781L138.782 70.3646L138.913 68.8906L138.85 66.3333L138.657 65.2448L138.85 63.901L138.975 60L138.85 58.8437L139.038 56.1562L138.782 43.4271L138.975 42.1458L138.85 40.7396L139.36 39.5833L140.767 39.0104L141.855 38.9479L143.137 39.0104L144.288 38.8802L147.808 38.9479L149.277 38.3698L149.918 37.0885L149.788 35.7448L149.918 30.5L149.277 29.2187L147.996 28.5781L146.465 28.7083L145.439 28.5781H144.225L142.814 28.7708H141.538L140.256 28.6406H138.975L137.506 28.8333L118.433 28.7083L117.027 29.3489L116.387 30.625L116.324 37.026L117.027 38.4323L118.308 39.0729L119.97 38.8802L125.668 38.9479L126.819 39.651L127.459 40.8646L127.647 47.9062L127.459 49.8854L127.584 51.1042L127.459 52.3854V54.9427L127.647 56.7969L127.392 58.7187L127.459 60L127.392 61.3437L127.584 65.2448L127.459 66.526L127.522 71.5156Z" fill="#34303E"/>
<path d="M169.878 74.0104L172.951 74.2656L176.149 74.1406L178.711 73.5625L180.055 73.0521L181.336 72.7344L182.357 72.0937L183.508 71.5781L184.534 70.875L187.414 68.3177L188.117 67.1667L188.951 66.2031L189.331 64.9271L189.972 63.8385L190.419 62.6198L190.867 56.1562L190.675 50.9739L190.935 49.6302V48.4792L190.675 47.1979L190.612 45.9844L190.742 44.6406L190.675 42.8489L190.805 40.8646L190.742 39.4583L190.935 38.2396L190.742 36.9635L190.805 31.776L190.612 30.6927L190.102 29.2812L188.055 28.7083L182.039 28.6406L180.628 29.2187L179.992 30.625L180.055 36.8958L179.925 38.1771L179.992 40.6719L179.862 42.0156L180.055 43.3594L179.862 48.4167L180.117 49.5677L179.992 50.9739L180.055 53.2812L179.925 54.5573L179.992 57.8229L179.732 59.8698L179.159 61.0885L178.581 61.9844L177.56 62.9427L174.998 63.776L173.274 63.901L171.159 63.776L170.008 63.4531L168.602 62.75L167.638 61.9167L166.873 61.0208L166.487 59.6771L166.362 48.4167L166.169 47.1354L166.107 43.1667L166.232 42.0156V36.8958L166.039 35.0417V33.8281L166.362 31.9062V30.5625L165.659 29.3489L164.123 28.7708L157.404 28.7083L156.123 29.4114L155.544 30.6927V34.5312L155.227 35.6198L155.482 38.3073L155.289 40.7396L155.612 44.5781L155.352 45.7917L155.544 47.1979L155.419 48.4167L155.482 49.6979L155.352 50.9114L155.544 53.4687L155.482 58.0781L155.675 59.9323V61.276L156.06 62.5573L156.248 63.776L156.633 64.9896L157.914 67.1667L159.643 69.276L160.472 70.1094L162.649 71.3906L163.607 72.1562L164.826 72.6667L166.294 73.1146L167.258 73.6302L168.664 73.6927L169.878 74.0104Z" fill="#34303E"/>
<path d="M199.949 71.5156L200.72 72.9219L201.741 73.5H203.214L204.558 73.6927H205.839L207.183 73.5L218.699 73.4375L222.798 72.8594L226.506 71.7083L231.944 68.0625L234.506 65.1198L236.491 61.9166L236.808 60.7031L237.449 59.4844L237.704 58.2083L238.152 57.0521L238.345 55.7083L238.668 54.3646L238.6 53.2812L238.855 49.1823L237.897 45.5364L237.772 44.1927L237.449 43.0416L236.491 40.4791L235.017 38.3073L234.506 37.2187L232.845 35.2344L231.756 34.401L229.964 32.6719L227.595 31.2031L226.313 30.5625L222.798 29.4114L220.173 28.901L211.084 28.8333L209.808 28.7083L205.709 28.8333L204.428 28.7083L203.277 28.7708L201.933 28.7083L200.782 29.4114L199.824 30.625V33.25L199.949 34.5312L199.886 35.8073L200.017 38.2396L199.824 39.651L200.017 40.9271L199.824 42.2083L200.079 47.3281L199.886 49.7604L200.079 52.5104L199.886 53.7291L200.079 55.0729L199.886 57.5677L200.017 62.6875L199.886 63.9635L200.079 69.0833L199.949 71.5156ZM213.517 63.1979L211.98 62.6198L211.407 61.2135L211.532 59.9323L211.277 58.7812L211.47 57.5V41.0573L212.235 39.9062L214.095 39.2031L215.438 39.2656L216.782 39.2031L218.699 39.3281L221.261 40.0989L223.433 41.5052L225.037 43.2969L225.741 44.5104L226.569 45.5364L227.339 49.3125L227.532 51.2969L227.209 54.4323L226.829 55.6458L225.866 57.9479L225.037 59.1041L224.204 60L223.433 61.0208L222.412 61.6614L221.131 62.3021L218.829 62.9427L213.517 63.1979Z" fill="#34303E"/>
<path d="M242.502 71.7708L242.82 73.1146L244.101 73.4375H249.731L251.393 73.6302L252.867 72.9896L254.018 71.8385L255.106 69.6614L256.195 68.4427L257.731 67.8073L259.012 67.9323L262.596 67.8698L263.939 68.0625L265.408 67.8698H266.559L267.903 67.9948L270.913 67.8698L273.023 68.5729L274.367 69.5989L274.689 70.75L275.393 71.901L276.481 72.9219L278.143 73.5625L279.294 73.4375L281.533 73.6302L285.502 73.5L286.653 73.1146L286.908 71.7708L286.528 70.1719L286.08 69.0208L285.247 67.9323L284.861 66.651L284.221 65.6927L283.841 64.4791L282.752 62.1719L282.304 60.9583L281.663 59.8698L280.768 57.5L280.064 56.4791L279.549 55.1979L278.976 54.1094L278.528 52.8333L277.95 51.8698L277.564 50.5937L276.861 49.4375L276.351 48.3541L275.71 47.2656L275.393 46.0469L274.111 43.8073L273.726 42.5937L272.575 40.1614L272.257 39.1354L271.294 36.8958L270.018 34.5312L268.992 32.0989L268.419 31.1406L268.033 29.9219L266.882 28.7083L264.705 28.1302L262.658 28.7708L261.439 29.9219L261.059 31.0729L258.304 36.8333L257.601 37.9844L254.018 46.0469L253.7 47.1354L252.997 48.2864L251.971 50.5937L251.012 52.2552L250.564 53.4687L249.669 55.1354L249.283 56.4791L248.705 57.5L248.257 58.7812L246.466 62.1094L244.611 66.7812L243.846 67.8073L243.268 69.0833L242.502 71.7708ZM262.273 57.6927L261.059 57.1823L260.867 55.901L263.424 50.0781L264.002 49.0573L264.835 48.4166L265.601 48.9271L266.434 51.4219L267.137 52.5104L267.393 53.5364L268.033 54.8125L268.481 55.9687L268.351 57.1198L267.262 57.6302L262.273 57.6927Z" fill="#34303E"/>
<path d="M307.818 73.6927H309.74L311.724 73.4375H313L314.859 72.8594L317.479 72.4114L320.49 71.1302L324.776 68.2552L327.911 64.2239L328.552 62.9427L329.318 61.9166L330.344 59.4219L330.661 58.2083L330.917 56.8646L331.302 55.776L331.495 54.4948V53.151L331.688 51.1041L331.625 49.25L330.729 44.1927L329.896 41.7604L329.385 40.5469L327.208 37.1562L323.818 33.3802L320.552 31.2031L319.339 30.5L318.057 30.2448L316.969 29.7291L315.625 29.4114L311.849 28.8333L297.26 28.7083L296.109 28.901L294.828 28.8333L293.422 29.4114L292.844 30.7552L292.781 66.526L292.906 67.7396V71.0052L293.547 72.9896L294.828 73.6302L296.109 73.5L303.917 73.6302L305.193 73.4375L307.818 73.6927ZM307.625 63.1979L306.411 63.0677L304.938 62.3646L304.427 61.151L304.365 60.0625L304.427 57.4375L304.172 54.3021L304.427 51.1041L304.297 42.2708L304.427 41.1875L305.068 39.7135L307.115 39.2656L309.802 39.2031L311.656 39.3958L314.151 40.0989L315.307 40.6719L316.266 41.375L317.224 42.2708L318.182 43.4271L318.823 44.5104L319.401 45.6666L320.422 51.2969L319.786 55.776L318.698 58.1406L316.328 60.8281L314.151 62.2396L312.297 62.8125L309.547 63.1354L307.625 63.1979Z" fill="#F42829"/>
<path d="M339.235 71.6458L340.064 72.8594L341.282 73.5625L355.741 73.4375L356.897 73.6302L360.798 73.4375L364.699 73.6927L365.918 73.5625L367.261 72.9219L367.834 71.7083L367.965 70.4948L367.902 66.526L368.027 65.3073L367.199 64.0312L365.277 63.3906L356.829 63.2604L355.616 63.4531L354.209 63.3281L352.798 63.4531L351.454 62.6875L350.881 60.7031L350.944 57.5677L351.522 56.2239L352.673 55.5208H355.168L356.449 55.3906L359.84 55.5833L361.564 55.4531L362.907 55.5833L364.064 55.5208L365.34 54.8125L365.98 53.5989L366.11 48.5417L365.98 47.2656L365.407 46.0469L364.319 45.3437L361.756 45.2812L360.48 45.4062H359.136L357.662 45.2812L352.605 45.3437L351.522 44.6406L350.751 43.4896L350.626 41.5052L351.261 39.651L353.246 39.0729L365.532 39.0104L366.876 38.3073L367.579 37.1562L367.454 34.5312L367.261 33.3125L367.324 31.9062L367.517 30.6927L366.876 29.4114L365.532 28.8333L360.412 28.7708L359.261 28.901L357.98 28.7083L355.168 28.8333L353.886 28.7083L351.392 28.7708L350.241 28.6406L341.855 28.8333L340.001 29.2812L339.36 30.6927L339.491 33.25L339.235 35.1042L339.491 38.3698L339.36 39.7135L339.491 40.8646V52.3177L339.298 53.6614L339.491 56.1562L339.36 58.7187L339.553 60.0625L339.423 61.4687L339.491 62.6875L339.298 63.8385L339.423 65.3073V66.5885L339.553 69.0833L339.491 70.3646L339.235 71.6458Z" fill="#F42829"/>
<path d="M389.336 72.3489L390.357 73.5L391.893 74.0781L393.174 74.2031L394.904 73.4375L395.987 72.4114L396.372 71.1979L397.461 68.7031L398.039 67.4844L398.674 66.3958L399.701 64.0937L400.086 62.9427L403.924 54.75L404.69 52.2552L406.034 49.9531L406.737 47.5208L407.445 46.2396L407.763 45.151L408.081 43.9375L408.982 42.7864L409.299 41.5677L410.133 40.6094L411.091 38.1146L411.409 36.9635L412.117 35.875L412.565 34.5937L413.201 33.3802L413.461 32.2917L414.096 30.7552L413.716 29.1562L412.628 28.7708H405.076L403.602 29.2812L402.451 30.5L402.133 31.651L394.518 50.401L393.878 51.6146L393.56 52.7656L392.789 53.9167L392.023 54.0469L391.508 52.8958L390.68 50.4635L390.164 49.3125L389.784 48.0312L389.336 47.0104L388.633 45.8542L387.862 43.2969L387.289 42.2708L386.841 41.1198L386.581 39.8437L384.341 35.2344L384.154 34.0156L383.513 32.8021L383.065 31.651L382.487 30.625L381.398 29.3489L379.93 28.8333L376.346 28.6406L375.258 28.7708L374.107 28.6406L372.763 28.7083L371.419 29.2812L371.289 30.6927L371.544 32.2239L372.122 33.3802L373.081 35.8073L373.659 36.9635L374.039 38.1146L374.742 39.3281L375.768 41.8229L376.409 42.9792L378.326 47.6458L378.966 48.6719L383.19 58.2083L383.513 59.2917L384.602 61.5989L384.982 62.8125L386.648 66.526L387.289 67.4844L387.607 68.8281L389.336 72.3489Z" fill="#F42829"/>
<path d="M440.194 73.5L442.303 72.8594L443.522 71.7708L443.97 70.6823L444.611 69.5989L445.121 68.1875L446.975 64.9896L447.871 62.4948L449.09 60.4479L454.079 49.9531L454.72 48.9896L455.168 47.776L457.98 41.8906L458.428 40.7396L461.371 35.1041L461.756 34.0156L463.423 30.5V29.4114L462.527 28.8333L461.309 28.7083L459.965 28.9635L457.47 28.7708L455.038 28.8333L453.439 29.2187L452.413 30.3698L447.298 40.8646L446.85 42.0833L446.142 43.1041L445.631 44.3229L444.928 45.4062L443.902 47.7135L443.454 48.9271L432.256 71.7083L432.324 73.0521L433.923 73.5L435.199 73.6927L437.059 73.6302L438.272 73.4375L440.194 73.5Z" fill="#34303E"/>
<path d="M467.962 65.8229L468.535 66.5885H469.243L471.608 65.6302L472.952 64.6719L474.618 63.9635L481.848 60L482.874 59.6771L484.217 58.9739L485.238 58.2708L486.519 57.8229L487.285 57.2448L490.868 55.3906L491.894 54.6875L492.66 53.9166L493.176 52.7031L493.301 48.9896L492.728 47.7135L491.894 46.625L491.061 46.0469L490.04 45.7916L489.144 45.151L488.311 44.8958L487.415 44.1927L485.493 43.4896L484.598 42.9114L481.848 41.4427L481.014 41.0573L479.738 40.0989L477.306 39.2031L475.514 38.0521L474.743 37.7291L472.889 36.5156L471.993 36.1302L471.098 35.8073L469.306 34.9114L468.473 34.9791L467.832 35.6198L467.962 37.5364L467.832 38.625L467.962 42.5312L468.28 43.6146L469.561 44.8958L470.905 45.7291L471.738 46.0469L472.759 46.8177L476.217 48.5416L477.113 49.1823L477.879 49.4375L478.967 50.0156L479.223 50.8489L478.967 51.3594L476.217 52.9583L475.321 53.3437L474.358 53.9166L473.655 54.4323L472.696 54.9427L471.801 55.2604L471.098 55.8385L469.243 56.7344L468.41 57.8229L467.832 59.1041L468.025 59.8698L467.9 60.8281L467.962 61.9844L467.832 64.8594L467.962 65.8229Z" fill="#34303E"/>
</g>
<defs>
<clipPath id="clip0_108_9179">
<rect width="506" height="100" fill="white"/>
</clipPath>
</defs>
</svg>
