<svg width="301" height="170" viewBox="0 0 301 170" fill="none" xmlns="http://www.w3.org/2000/svg">
<g clip-path="url(#clip0_843_8)">
<path d="M74.6737 91.2391C79.939 87.5827 99.5291 80.9966 108.666 78.1606H118.929C125.019 79.6706 138.703 83.2996 144.712 85.7358C150.721 88.1721 161.677 102.598 166.076 109.298L161.29 118.463C149.109 130.482 158.924 141.093 165.42 145.018C155.675 145.018 151.479 141.363 150.6 139.536C151.574 145.058 152.359 158.62 152.63 164.711H80.9638V153.641H53.6298C51.1108 126.081 68.0922 95.8096 74.6737 91.2391Z" fill="url(#paint0_linear_843_8)"/>
<ellipse cx="114.571" cy="86.8563" rx="12.2025" ry="8.69561" fill="#CF0606"/>
<path d="M105.512 85.9584C107.095 76.8512 106.537 68.4239 106.29 65.5161C106.636 62.7938 121.041 67.8925 127.97 70.6148C124.06 72.5946 123 82.4937 122.959 87.1958C123.083 88.7425 122.117 92.0216 117.267 92.7641C109.149 93.7045 106.048 88.6188 105.512 85.9584Z" fill="url(#paint1_linear_843_8)"/>
<mask id="mask0_843_8" style="mask-type:alpha" maskUnits="userSpaceOnUse" x="105" y="64" width="23" height="29">
<path d="M105.512 85.9584C107.095 76.8512 106.537 68.4239 106.29 65.5161C106.636 62.7938 121.041 67.8925 127.97 70.6148C124.06 72.5946 123 82.4937 122.959 87.1958C123.083 88.7425 122.117 92.0216 117.267 92.7641C109.149 93.7045 106.048 88.6188 105.512 85.9584Z" fill="#BABABA"/>
</mask>
<g mask="url(#mask0_843_8)">
<path opacity="0.1" d="M125.572 80.0631C115.817 78.5411 108.585 69.9648 106.188 65.8669C111.756 64.7183 124.275 63.1103 129.81 65.8669C135.345 68.6235 129.291 76.4796 125.572 80.0631Z" fill="black"/>
</g>
<path d="M122.601 72.2823C138.623 71.5857 139.081 49.6747 137.307 38.8063C108.359 14.2701 96.7362 33.5495 94.5431 46.2562C97.2199 55.2218 106.579 72.9789 122.601 72.2823Z" fill="url(#paint2_linear_843_8)"/>
<path d="M101.92 16.9059C97.3105 15.4529 87.7008 14.7264 86.1376 23.4443C86.1376 29.0808 99.7404 27.6529 101.92 16.9059Z" fill="#30235B"/>
<path d="M107.47 45.858L113.999 51.465L113.29 54.7351L107.201 49.3912L107.47 45.858Z" fill="#111111"/>
<path d="M100.832 50.9C106.405 55.6215 106.766 62.994 106.25 66.09C104.444 65.6063 99.3998 62.4715 93.672 53.8026C84.5386 35.1489 95.5425 21.1973 102.186 16.5533C119.988 6.20085 143.789 22.2616 139.629 34.549C135.469 46.8365 115.57 43.9984 108.185 39.2899C109.733 43.9339 108.314 48.5135 107.411 50.2228C103.928 42.0956 93.8655 44.9982 100.832 50.9Z" fill="#30235B"/>
<path d="M112.762 14.1559C124.616 10.7509 131.836 16.8884 133.965 20.3827C131.574 19.0953 124.947 17.293 117.57 20.3827C105.904 25.7425 103.356 37.1715 103.54 42.216L95.8155 41.6642V38.8267C96.5249 32.0219 100.907 17.561 112.762 14.1559Z" fill="white"/>
<ellipse cx="98.9789" cy="49.1323" rx="9.06652" ry="11.092" fill="white"/>
<ellipse cx="98.9789" cy="49.1323" rx="9.06652" ry="11.092" fill="white"/>
<ellipse cx="98.9789" cy="49.1323" rx="4.32772" ry="5.29455" fill="#24C28A"/>
<path opacity="0.5" d="M138.594 47.4397C135.233 46.401 131.614 48.6153 130.224 49.8523C127.697 52.2649 131.529 58.3996 135.959 55.5737C139.502 53.313 139.192 49.209 138.594 47.4397Z" fill="#E6FCFF"/>
<path fill-rule="evenodd" clip-rule="evenodd" d="M128.8 49.124C133.661 44.6339 138.271 45.4015 139.968 46.3466C140.95 48.9473 139.968 56.5469 134.547 57.2206C130.21 57.7596 128.724 54.4068 128.523 52.663C127.699 51.9972 127.151 52.5711 126.98 52.9413C127.123 57.7876 123.227 61.0659 119.046 60.3057C115.701 59.6976 114.245 56.3551 113.935 54.7599H113.243V51.9242C117.599 47.6593 123.616 48.7047 126.081 49.7605C126.729 49.2513 128.164 49.124 128.8 49.124ZM138.339 47.7439C134.978 46.7052 131.908 48.4849 130.518 49.7219C127.991 52.1345 131.31 58.0451 135.947 55.5736C138.723 54.0936 138.937 49.5133 138.339 47.7439ZM119.336 50.9064C121.171 50.3092 124.913 49.9096 125.2 53.0889C125.558 57.0631 121.942 59.9949 118.783 58.4313C116.495 57.2992 115.558 54.9783 115.558 53.5124C115.558 52.3397 118.077 51.2864 119.336 50.9064Z" fill="#111111"/>
<path opacity="0.5" d="M125.212 53.0889C124.925 49.9096 121.183 50.3092 119.348 50.9064C118.089 51.2864 115.57 52.3397 115.57 53.5124C115.57 54.9783 116.507 57.2992 118.795 58.4313C121.954 59.9949 125.57 57.0631 125.212 53.0889Z" fill="#E6FCFF"/>
<path d="M53.6065 153.677C56.4251 166.238 73.1634 166.264 81.1802 164.706L142.974 155.779C143.771 156.47 145.679 158.294 146.936 160.057C148.194 161.819 149.347 160.58 149.766 159.741C151.578 161.703 152.911 160.769 153.351 160.057C154.911 162.021 156.223 161.335 156.684 160.747C158.848 162.357 159.394 160.958 159.396 160.057C156.445 153.807 151.15 147.543 148.872 145.192L133.464 146.602L83.4014 141.498C73.9038 134.835 50.0832 137.975 53.6065 153.677Z" fill="url(#paint3_linear_843_8)"/>
<path d="M173.337 134.671C170.545 143.686 166.697 145.261 165.122 144.921C148.544 133.828 155.663 122.46 161.294 118.163L175.974 87.9382C173.849 86.2763 171.481 81.0768 171.724 77.7978C171.918 75.1747 173.707 75.0869 174.577 75.3709C174.82 72.6528 176.784 72.7393 177.735 73.1223C178.561 70.1592 180.953 70.7947 182.046 71.4829C182.192 67.4025 185.021 67.9611 186.418 68.7505L188.869 75.3709C189.871 75.5099 192.194 75.8316 193.473 76.0061C195.073 76.2241 197.108 76.5149 196.09 78.7685C195.276 80.5713 191.147 86.7407 189.184 89.6001C185.065 100.868 176.128 125.657 173.337 134.671Z" fill="url(#paint4_linear_843_8)"/>
<path d="M131.079 161.468H163.406V161.468C163.406 163.259 161.954 164.711 160.163 164.711H134.322C132.531 164.711 131.079 163.259 131.079 161.468V161.468Z" fill="#B4B4B4"/>
<path d="M173.713 121.556C173.939 121.014 174.469 120.661 175.056 120.661H229.65C230.688 120.661 231.392 121.718 230.993 122.676L213.842 163.815C213.616 164.357 213.086 164.711 212.499 164.711H157.905C156.867 164.711 156.163 163.654 156.562 162.696L173.713 121.556Z" fill="url(#paint5_linear_843_8)"/>
<path d="M83.4203 141.484L84.8699 130.072" stroke="#30235B" stroke-width="0.291011"/>
<path d="M150.556 139.604C150.338 138.264 149.969 135.027 150.229 132.793" stroke="#30235B" stroke-width="0.291011"/>
<path d="M150.162 135.291L148.915 132.764" stroke="#30235B" stroke-width="0.291011"/>
<path d="M149.72 159.636L145.671 154.526" stroke="#30235B" stroke-width="0.291011"/>
<path d="M153.304 159.889L146.985 151.688" stroke="#30235B" stroke-width="0.291011"/>
<path d="M156.626 160.64L148.771 149.323" stroke="#30235B" stroke-width="0.291011"/>
<path d="M174.575 75.42C174.791 76.5455 175.497 79.2061 176.59 80.8449" stroke="#30235B" stroke-width="0.291011"/>
<path d="M182.06 71.5068C182.391 72.6682 183.252 75.2875 184.051 76.4738" stroke="#30235B" stroke-width="0.291011"/>
<path d="M177.691 73.1942C178.081 74.4585 179.048 77.238 179.801 78.2418" stroke="#30235B" stroke-width="0.291011"/>
<path d="M188.838 75.3668L190.043 78.8914" stroke="#30235B" stroke-width="0.291011"/>
<ellipse cx="195.76" cy="143.734" rx="3.69345" ry="5.34721" transform="rotate(19.8998 195.76 143.734)" fill="white"/>
<rect x="291.209" y="108.301" width="59.3885" height="4.86472" transform="rotate(117.371 291.209 108.301)" fill="#E0E0E0"/>
<rect x="249.252" y="157.37" width="27.4581" height="7.34032" rx="1.45505" fill="#30235B"/>
<rect x="288.067" y="108.777" width="31.8996" height="4.86472" transform="rotate(-139.766 288.067 108.777)" fill="#E0E0E0"/>
<rect x="264.233" y="86.054" width="9.41178" height="1.67568" transform="rotate(162.128 264.233 86.054)" fill="#E0E0E0"/>
<circle cx="289.156" cy="106.818" r="3.39843" fill="#30235B"/>
<path d="M262.107 83.5985L266.868 84.4823L263.722 88.1636L262.107 83.5985Z" fill="#30235B"/>
<path d="M247.279 82.0119C248.376 79.2572 251.498 77.9132 254.253 79.0098V79.0098C257.007 80.1065 258.351 83.2286 257.255 85.9832L254.222 93.6L244.247 89.6287L247.279 82.0119Z" fill="#30235B"/>
<path d="M250.442 89.7833C239.371 85.4363 232.006 95.1742 229.405 100.331C237.091 111.29 251.172 112.416 257.554 111.864C259.796 106.315 261.513 94.1304 250.442 89.7833Z" fill="#30235B"/>
<path d="M26.6288 131.058C19.5053 135.418 17.2638 131.441 17.0334 128.908C17.0334 125.224 17.0334 122.153 12.1975 116.703C0.529606 103.807 4.2142 83.2347 20.3343 81.9298C36.4544 80.6248 31.7719 90.8342 26.0915 97.4357C20.4223 104.024 24.0047 106.025 32.489 110.764L32.5395 110.792C43.5933 117.471 34.3818 123.458 28.9317 124.533C23.4815 125.608 28.164 128.908 26.6288 131.058Z" fill="url(#paint6_linear_843_8)"/>
<path d="M97.1478 59.664C94.6238 59.1339 89.6167 55.8231 90.0686 48.2166" stroke="#30235B" stroke-width="0.446064"/>
<path d="M132.71 18.8707C131.336 16.8308 128.089 13.8159 121.544 13.5067" stroke="#30235B" stroke-width="0.446064"/>
<path d="M42.7854 149.408C43.388 142.505 37.0083 140.843 33.106 140.844C32.6369 140.844 32.2364 141.165 32.1004 141.614C31.878 142.348 32.4408 143.088 33.2054 143.145C36.6513 143.404 41.2978 144.87 40.4407 149.408C39.6089 153.811 35.7924 154.641 33.0904 154.455C32.3459 154.403 31.6481 154.957 31.6481 155.704C31.6481 156.26 32.0413 156.742 32.5942 156.8C36.2395 157.183 42.1952 156.168 42.7854 149.408Z" fill="url(#paint7_linear_843_8)"/>
<path d="M32.7776 138.412V163.256C32.7776 164.059 32.1261 164.711 31.3225 164.711H11.7084C10.9048 164.711 10.2533 164.059 10.2533 163.256L10.2534 138.412C10.2534 137.608 10.9048 136.957 11.7084 136.957H31.3225C32.1261 136.957 32.7776 137.608 32.7776 138.412Z" fill="url(#paint8_linear_843_8)"/>
<path d="M161.274 118.136L165.78 108.896" stroke="#30235B" stroke-width="0.446064"/>
<path d="M123.619 145.548C122.121 150.603 122.994 156.314 123.619 158.538L127.784 157.948C126.915 151.322 127.422 147.227 127.784 146.008L123.619 145.548Z" fill="#30235B"/>
<rect x="121.968" y="143.382" width="7.87746" height="2.04232" rx="1.02116" transform="rotate(6.01694 121.968 143.382)" fill="url(#paint9_linear_843_8)"/>
<rect opacity="0.5" x="12.8228" y="-13.8284" width="46.9745" height="36.4339" rx="1.78426" stroke="#F0F0F0" stroke-width="0.892128"/>
<rect opacity="0.5" x="22.1925" y="-10.4958" width="28.5436" height="27.4521" fill="white"/>
</g>
<defs>
<linearGradient id="paint0_linear_843_8" x1="115.552" y1="63.93" x2="109.727" y2="180.605" gradientUnits="userSpaceOnUse">
<stop stop-color="#FF9F81"/>
<stop offset="1" stop-color="#F53838"/>
</linearGradient>
<linearGradient id="paint1_linear_843_8" x1="115.489" y1="32.3485" x2="114.447" y2="84.1704" gradientUnits="userSpaceOnUse">
<stop stop-color="#FFEFE0"/>
<stop offset="1" stop-color="#FFBE99"/>
</linearGradient>
<linearGradient id="paint2_linear_843_8" x1="116.279" y1="26.9851" x2="116.279" y2="72.3022" gradientUnits="userSpaceOnUse">
<stop stop-color="#FFEFE0"/>
<stop offset="1" stop-color="#FFBE99"/>
</linearGradient>
<linearGradient id="paint3_linear_843_8" x1="106.325" y1="121.282" x2="106.325" y2="160.685" gradientUnits="userSpaceOnUse">
<stop offset="0.0677966" stop-color="#FFEFE0"/>
<stop offset="1" stop-color="#FFBE99"/>
</linearGradient>
<linearGradient id="paint4_linear_843_8" x1="161.241" y1="63.4518" x2="199.478" y2="108.202" gradientUnits="userSpaceOnUse">
<stop stop-color="#FFEFE0"/>
<stop offset="1" stop-color="#FFBE99"/>
</linearGradient>
<linearGradient id="paint5_linear_843_8" x1="209.493" y1="87.6019" x2="188.048" y2="176.561" gradientUnits="userSpaceOnUse">
<stop offset="0.0171777" stop-color="white"/>
<stop offset="1" stop-color="#D7D7D7"/>
</linearGradient>
<linearGradient id="paint6_linear_843_8" x1="-5.64009" y1="136.671" x2="37.7309" y2="81.8159" gradientUnits="userSpaceOnUse">
<stop stop-color="#ECECEC"/>
<stop offset="1" stop-color="#F5F5F5" stop-opacity="0"/>
</linearGradient>
<linearGradient id="paint7_linear_843_8" x1="46.6055" y1="144.204" x2="31.6481" y2="144.532" gradientUnits="userSpaceOnUse">
<stop stop-color="white"/>
<stop offset="1" stop-color="#CCCCCC"/>
</linearGradient>
<linearGradient id="paint8_linear_843_8" x1="21.5155" y1="128.578" x2="21.5155" y2="173.317" gradientUnits="userSpaceOnUse">
<stop stop-color="white"/>
<stop offset="1" stop-color="#CCCCCC"/>
</linearGradient>
<linearGradient id="paint9_linear_843_8" x1="125.757" y1="142.983" x2="125.705" y2="145.458" gradientUnits="userSpaceOnUse">
<stop stop-color="#7F67CE"/>
<stop offset="1" stop-color="#30235B"/>
</linearGradient>
<clipPath id="clip0_843_8">
<rect width="301" height="170" fill="white"/>
</clipPath>
</defs>
</svg>
