<svg width="101" height="100" viewBox="0 0 101 100" fill="none" xmlns="http://www.w3.org/2000/svg">
<path d="M60.3544 64.7173L35.8294 59.5924C35.7267 59.791 35.6125 59.9834 35.4873 60.1686L57.8139 92.7376L59.1607 91.3923L62.9591 67.7716C62.3171 67.5004 61.7473 67.083 61.2951 66.5527C60.8429 66.0223 60.5208 65.3938 60.3544 64.717V64.7173ZM51.4077 32.6577C50.489 34.067 48.9031 34.9998 47.0968 34.9998C46.8187 34.9998 46.5484 34.9717 46.2828 34.9295L35.0982 52.4296L64.9798 39.5705C64.9704 39.4502 64.9438 39.3377 64.9438 39.2142C64.9438 38.9627 64.9782 38.7189 65.0188 38.4783L51.4077 32.6581V32.6577ZM52.2202 29.4687L66.6985 35.6592C67.1598 35.2986 67.6875 35.0321 68.2516 34.8748L70.6312 20.0782L61.5654 11.0123L51.3608 26.98C51.861 27.7198 52.1573 28.5783 52.2202 29.4691V29.4687ZM82.5576 32.0046L73.4718 22.9172L71.4969 35.1858C71.9975 35.4375 72.4473 35.7797 72.8234 36.1951L82.5576 32.0046ZM60.7888 61.4858C61.1444 60.8403 61.6552 60.2935 62.275 59.895C62.8949 59.4964 63.6043 59.2586 64.3391 59.203L66.9485 42.9735C66.7438 42.8376 66.561 42.6751 66.3813 42.5079L36.3279 55.4421C36.4044 55.7562 36.4576 56.0765 36.4826 56.4093L60.7888 61.4858ZM85.0326 34.4811L74.5202 39.0045L100.458 50.0938L100.551 50L85.0326 34.4811ZM66.2469 67.8204L63.0876 87.4623L81.4326 69.1173L68.2188 66.3579C67.712 67.0211 67.0286 67.528 66.2469 67.8204ZM30.5889 62.7705C29.9248 62.7705 29.2889 62.6564 28.6936 62.4545L22.6 71.9907L20.2453 69.6376L26.0171 60.6065C25.8744 60.4293 25.7413 60.2446 25.6187 60.053L15.1626 64.5548L12.6841 62.0764L24.1292 57.1499L3.43776 52.8312L0.607726 50L1.50302 49.1047L25.364 54.0859C25.6384 53.5653 25.9897 53.0891 26.4062 52.6734L14.8251 35.7811L17.1641 33.4421L29.2635 51.0922C29.698 50.9913 30.1425 50.9394 30.5885 50.9375C31.0994 50.9375 31.5947 51.0094 32.0682 51.1312L43.3903 33.4155C42.4685 32.4593 41.9537 31.1827 41.9543 29.8546C41.9543 29.4484 42.0059 29.0546 42.095 28.6765L27.9702 22.6375L30.4479 20.1595L43.8305 25.8828C44.5091 25.3235 45.3202 24.9482 46.1858 24.7931C47.0514 24.6379 47.9424 24.7081 48.773 24.9969L59.2119 8.65924L50.553 0L0.55304 50L50.553 100L55.4733 95.0798L32.9795 62.2639C32.2267 62.5976 31.4124 62.7702 30.5889 62.7705ZM70.1312 43.6731L67.4766 60.1717C67.9405 60.5445 68.3247 61.0068 68.6063 61.5311C68.8878 62.0554 69.0611 62.631 69.1156 63.2236L84.1826 66.3689L97.9792 52.5722L73.0765 41.9251C72.364 42.8738 71.3053 43.5022 70.1312 43.6735V43.6731Z" fill="#25C7B7"/>
</svg>
